<?xml version="1.0" encoding="UTF-8"?>
<svg version="1.1" xmlns="http://www.w3.org/2000/svg" width="1024" height="1024">
<path d="M0 0 C5.80651265 0.00686102 11.61299948 -0.00372524 17.41950679 -0.01193976 C28.75991729 -0.02520492 40.10026787 -0.02243177 51.44068062 -0.01370184 C60.66610037 -0.00689708 69.89150346 -0.00602058 79.116925 -0.00927329 C80.4352935 -0.00973299 81.753662 -0.01019269 83.11198106 -0.01066632 C85.11936818 -0.01138023 87.1267553 -0.01210388 89.13414241 -0.01284699 C114.15231264 -0.02199771 139.17045039 -0.0137455 164.1886156 0.0024437 C186.35351278 0.01667758 208.51835823 0.01540358 230.68325496 0.00106072 C255.65940446 -0.01504776 280.63552534 -0.02134841 305.61167932 -0.01210248 C308.2803692 -0.01114052 310.94905908 -0.01020383 313.61774898 -0.00927329 C314.9304296 -0.00881046 316.24311022 -0.00834764 317.59556904 -0.00787079 C326.7984549 -0.00529213 336.00132228 -0.00962751 345.20420527 -0.01671195 C356.43581825 -0.02516896 367.66736842 -0.02275918 378.8989743 -0.00686972 C384.6177136 0.00095685 390.33634858 0.00420173 396.05508685 -0.00581717 C473.30261319 -0.1296665 546.63118984 18.22775791 605.86733699 70.39217401 C606.57889949 71.00447869 607.29046199 71.61678338 608.02358699 72.24764276 C609.98926609 73.94344378 611.93062928 75.66336148 613.86733699 77.39217401 C614.76839168 78.18881463 615.66944636 78.98545526 616.59780574 79.80623651 C628.67791303 90.59459776 639.10540361 102.49084775 648.86733699 115.39217401 C649.31963679 115.98224236 649.7719366 116.57231072 650.23794246 117.18025994 C695.09703441 175.81397544 709.38609048 243.27393115 709.25951099 315.52483702 C709.25264997 321.33134967 709.26323624 327.1378365 709.27145076 332.94434381 C709.28471592 344.28475431 709.28194277 355.62510489 709.27321284 366.96551764 C709.26640807 376.19093739 709.26553157 385.41634047 709.26878428 394.64176202 C709.26924398 395.96013052 709.26970368 397.27849902 709.27017731 398.63681808 C709.27089122 400.6442052 709.27161487 402.65159232 709.27235799 404.65897943 C709.2815087 429.67714965 709.27325649 454.69528741 709.25706729 479.71345261 C709.24283341 501.8783498 709.24410742 524.04319524 709.25845027 546.20809197 C709.27455876 571.18424148 709.28085941 596.16036235 709.27161348 621.13651633 C709.27065151 623.80520621 709.26971482 626.4738961 709.26878428 629.14258599 C709.26832146 630.45526662 709.26785863 631.76794724 709.26738178 633.12040606 C709.26480312 642.32329192 709.2691385 651.5261593 709.27622294 660.72904229 C709.28467995 671.96065527 709.28227017 683.19220544 709.26638071 694.42381132 C709.25855415 700.14255061 709.25530926 705.86118559 709.26532817 711.57992387 C709.3891775 788.8274502 691.03175308 862.15602686 638.86733699 921.39217401 C638.2550323 922.10373651 637.64272761 922.81529901 637.01186824 923.54842401 C635.31606721 925.51410311 633.59614951 927.4554663 631.86733699 929.39217401 C631.07069636 930.29322869 630.27405574 931.19428338 629.45327449 932.12264276 C618.66491323 944.20275005 606.76866324 954.63024063 593.86733699 964.39217401 C593.27726863 964.84447381 592.68720027 965.29677361 592.07925105 965.76277947 C533.44553555 1010.62187142 465.98557984 1024.9109275 393.73467398 1024.78434801 C387.92816133 1024.77748699 382.12167449 1024.78807325 376.31516719 1024.79628778 C364.97475668 1024.80955293 353.6344061 1024.80677978 342.29399335 1024.79804985 C333.0685736 1024.79124509 323.84317052 1024.79036859 314.61774898 1024.7936213 C313.29938047 1024.794081 311.98101197 1024.7945407 310.62269291 1024.79501433 C308.61530579 1024.79572824 306.60791868 1024.79645189 304.60053157 1024.797195 C279.58236134 1024.80634572 254.56422359 1024.79809351 229.54605838 1024.78190431 C207.3811612 1024.76767043 185.21631575 1024.76894443 163.05141902 1024.78328729 C138.07526951 1024.79939577 113.09914864 1024.80569642 88.12299466 1024.7964505 C85.45430478 1024.79548853 82.78561489 1024.79455184 80.116925 1024.7936213 C78.80424438 1024.79315848 77.49156376 1024.79269565 76.13910493 1024.7922188 C66.93621907 1024.78964014 57.7333517 1024.79397552 48.5304687 1024.80105996 C37.29885572 1024.80951697 26.06730556 1024.80710719 14.83569968 1024.79121773 C9.11696038 1024.78339116 3.3983254 1024.78014628 -2.32041287 1024.79016519 C-79.56793921 1024.91401452 -152.89651587 1006.5565901 -212.13266301 954.39217401 C-212.84422551 953.77986932 -213.55578801 953.16756463 -214.28891301 952.53670526 C-216.25459211 950.84090423 -218.19595531 949.12098653 -220.13266301 947.39217401 C-221.0337177 946.59553338 -221.93477239 945.79889276 -222.86313176 944.97811151 C-234.94323905 934.18975025 -245.37072964 922.29350026 -255.13266301 909.39217401 C-255.58496282 908.80210565 -256.03726262 908.21203729 -256.50326848 907.60408807 C-301.36236043 848.97037257 -315.6514165 781.51041686 -315.52483702 709.25951099 C-315.51797599 703.45299835 -315.52856226 697.64651151 -315.53677678 691.84000421 C-315.55004194 680.4995937 -315.54726879 669.15924312 -315.53853886 657.81883037 C-315.5317341 648.59341062 -315.5308576 639.36800754 -315.53411031 630.14258599 C-315.53457001 628.82421749 -315.53502971 627.50584899 -315.53550334 626.14752993 C-315.53621725 624.14014281 -315.53694089 622.1327557 -315.53768401 620.12536859 C-315.54683473 595.10719836 -315.53858251 570.0890606 -315.52239332 545.0708954 C-315.50815943 522.90599821 -315.50943344 500.74115277 -315.52377629 478.57625604 C-315.53988478 453.60010653 -315.54618543 428.62398566 -315.5369395 403.64783168 C-315.53597753 400.9791418 -315.53504085 398.31045191 -315.53411031 395.64176202 C-315.53364748 394.3290814 -315.53318465 393.01640077 -315.5327078 391.66394195 C-315.53012914 382.46105609 -315.53446452 373.25818872 -315.54154897 364.05530572 C-315.55000598 352.82369274 -315.54759619 341.59214258 -315.53170674 330.36053669 C-315.52388017 324.6417974 -315.52063529 318.92316242 -315.53065419 313.20442414 C-315.65450352 235.95689781 -297.29707911 162.62832115 -245.13266301 103.39217401 C-244.52035832 102.68061151 -243.90805364 101.96904901 -243.27719426 101.23592401 C-241.58139324 99.27024491 -239.86147554 97.32888171 -238.13266301 95.39217401 C-236.93770207 94.04059197 -236.93770207 94.04059197 -235.71860051 92.66170526 C-224.93023925 80.58159796 -213.03398926 70.15410738 -200.13266301 60.39217401 C-199.54259465 59.9398742 -198.95252629 59.4875744 -198.34457707 59.02156854 C-139.71086158 14.16247659 -72.25090587 -0.12657949 0 0 Z " fill="#FEFEFE" transform="translate(315.1326630115509,-0.39217400550842285)"/>
<path d="M0 0 C2.1766172 1.75662205 3.64783052 3.19007877 5.375 5.3125 C5.84558838 5.85793457 6.31617676 6.40336914 6.80102539 6.96533203 C8.22345273 8.62591202 9.61495833 10.30818043 11 12 C11.75410156 12.90878906 12.50820313 13.81757812 13.28515625 14.75390625 C14.73895182 16.52431792 16.1840782 18.30187883 17.62109375 20.0859375 C20.35905042 23.43982202 23.17216465 26.7219289 26 30 C30.30000409 34.98916345 34.50486186 40.04222113 38.65625 45.15625 C41.39302049 48.47686486 44.1910295 51.74046782 47 55 C51.29972713 59.98940767 55.50485409 65.04221156 59.65625 70.15625 C62.39302049 73.47686486 65.1910295 76.74046782 68 80 C72.29972713 84.98940767 76.50485409 90.04221156 80.65625 95.15625 C83.39302138 98.47686594 86.19106385 101.74043709 89 105 C93.32172863 110.01591689 97.55479196 115.09175299 101.73046875 120.23046875 C104.24929172 123.30421313 106.80550928 126.34361381 109.375 129.375 C109.83438965 129.91761475 110.2937793 130.46022949 110.76708984 131.01928711 C113.12235041 133.79773932 115.48663621 136.56794086 117.86328125 139.328125 C122.26044743 144.44657144 126.60585122 149.61136791 130.75 154.9375 C131.40484375 155.77152344 132.0596875 156.60554687 132.734375 157.46484375 C134.3805176 160.76220964 134.01693114 162.51062491 133 166 C131.38694893 167.9252545 129.88633699 169.37384743 128 171 C126.92685547 171.98806641 126.92685547 171.98806641 125.83203125 172.99609375 C120.67470297 177.72706103 115.35633324 182.2143367 109.91796875 186.6171875 C106.74582711 189.20755752 103.61953249 191.84678938 100.5 194.5 C96.55361117 197.85460405 92.58357507 201.17222172 88.5625 204.4375 C83.69870975 208.39508188 78.94118769 212.46542446 74.19165039 216.55834961 C69.8019965 220.33334391 65.33885229 224.00728461 60.84375 227.65625 C57.52313514 230.39302049 54.25953218 233.1910295 51 236 C46.01059233 240.29972713 40.95778844 244.50485409 35.84375 248.65625 C32.52313406 251.39302138 29.25956291 254.19106385 26 257 C20.98408311 261.32172863 15.90824701 265.55479196 10.76953125 269.73046875 C5.45558334 274.08505794 0.23473234 278.55078435 -5 283 C-11.10888035 288.19219022 -17.21510641 293.38123581 -23.4375 298.4375 C-27.68392382 301.89274151 -31.85296294 305.42697834 -36 309 C-41.01596403 313.32167542 -46.09175108 317.55479041 -51.23046875 321.73046875 C-56.54441666 326.08505794 -61.76526766 330.55078435 -67 335 C-73.10888035 340.19219022 -79.21510641 345.38123581 -85.4375 350.4375 C-89.68392382 353.89274151 -93.85296294 357.42697834 -98 361 C-103.01596403 365.32167542 -108.09175108 369.55479041 -113.23046875 373.73046875 C-118.54441666 378.08505794 -123.76526766 382.55078435 -129 387 C-135.10888035 392.19219022 -141.21510641 397.38123581 -147.4375 402.4375 C-151.68392382 405.89274151 -155.85296294 409.42697834 -160 413 C-165.01596403 417.32167542 -170.09175108 421.55479041 -175.23046875 425.73046875 C-180.54441666 430.08505794 -185.76526766 434.55078435 -191 439 C-197.10888035 444.19219022 -203.21510641 449.38123581 -209.4375 454.4375 C-213.68392382 457.89274151 -217.85296294 461.42697834 -222 465 C-227.01596403 469.32167542 -232.09175108 473.55479041 -237.23046875 477.73046875 C-242.54441666 482.08505794 -247.76526766 486.55078435 -253 491 C-259.10888035 496.19219022 -265.21510641 501.38123581 -271.4375 506.4375 C-276.30129025 510.39508188 -281.05881231 514.46542446 -285.80834961 518.55834961 C-290.1980035 522.33334391 -294.66114771 526.00728461 -299.15625 529.65625 C-302.47686594 532.39302138 -305.74043709 535.19106385 -309 538 C-314.01591689 542.32172863 -319.09175299 546.55479196 -324.23046875 550.73046875 C-327.30421165 553.2492905 -330.34366756 555.80544745 -333.375 558.375 C-333.91398926 558.83148926 -334.45297852 559.28797852 -335.00830078 559.75830078 C-337.84713561 562.1654506 -340.67877769 564.58068539 -343.50390625 567.00390625 C-344.07898926 567.4952002 -344.65407227 567.98649414 -345.24658203 568.49267578 C-346.33713843 569.42451418 -347.42552523 570.35890062 -348.51123047 571.29638672 C-357.51427228 578.97724268 -357.51427228 578.97724268 -362.5703125 579.0546875 C-366.66263886 577.79622723 -368.13581399 576.38066553 -370.875 573.125 C-371.7309375 572.12339844 -372.586875 571.12179687 -373.46875 570.08984375 C-374.3040625 569.07019531 -375.139375 568.05054688 -376 567 C-376.7321875 566.11441406 -377.464375 565.22882812 -378.21875 564.31640625 C-379.68146948 562.53305442 -381.13698276 560.74377223 -382.5859375 558.94921875 C-385.33861873 555.5863153 -388.16181769 552.29070431 -391 549 C-395.29995131 544.01078981 -399.50486032 538.95778077 -403.65625 533.84375 C-406.39302049 530.52313514 -409.1910295 527.25953218 -412 524 C-416.29972713 519.01059233 -420.50485409 513.95778844 -424.65625 508.84375 C-427.39302049 505.52313514 -430.1910295 502.25953218 -433 499 C-437.29972713 494.01059233 -441.50485409 488.95778844 -445.65625 483.84375 C-448.39302138 480.52313406 -451.19106385 477.25956291 -454 474 C-458.32172863 468.98408311 -462.55479196 463.90824701 -466.73046875 458.76953125 C-469.24929172 455.69578687 -471.80550928 452.65638619 -474.375 449.625 C-475.06408447 448.81107788 -475.06408447 448.81107788 -475.76708984 447.98071289 C-478.12235041 445.20226068 -480.48663621 442.43205914 -482.86328125 439.671875 C-487.25330615 434.56086336 -491.58081392 429.40552995 -495.6875 424.0625 C-496.33074219 423.22847656 -496.97398437 422.39445312 -497.63671875 421.53515625 C-499.36731083 418.3169492 -499.64430124 416.60435187 -499 413 C-497.25868716 410.91832584 -495.74291689 409.39263986 -493.6875 407.6875 C-493.14206543 407.2123999 -492.59663086 406.7372998 -492.03466797 406.24780273 C-490.37293 404.81091643 -488.69161651 403.4015242 -487 402 C-486.09121094 401.24460937 -485.18242187 400.48921875 -484.24609375 399.7109375 C-482.47502298 398.25924015 -480.69748157 396.81540662 -478.9140625 395.37890625 C-475.56017662 392.64094847 -472.27810205 389.82780112 -469 387 C-463.98432907 382.6779929 -458.90823728 378.44520013 -453.76953125 374.26953125 C-448.45558334 369.91494206 -443.23473234 365.44921565 -438 361 C-431.89111965 355.80780978 -425.78489359 350.61876419 -419.5625 345.5625 C-415.31607618 342.10725849 -411.14703706 338.57302166 -407 335 C-401.98403597 330.67832458 -396.90824892 326.44520959 -391.76953125 322.26953125 C-386.45558334 317.91494206 -381.23473234 313.44921565 -376 309 C-369.89111965 303.80780978 -363.78489359 298.61876419 -357.5625 293.5625 C-353.31607618 290.10725849 -349.14703706 286.57302166 -345 283 C-339.98403597 278.67832458 -334.90824892 274.44520959 -329.76953125 270.26953125 C-324.45558334 265.91494206 -319.23473234 261.44921565 -314 257 C-307.89111965 251.80780978 -301.78489359 246.61876419 -295.5625 241.5625 C-291.31607618 238.10725849 -287.14703706 234.57302166 -283 231 C-277.98403597 226.67832458 -272.90824892 222.44520959 -267.76953125 218.26953125 C-262.45558334 213.91494206 -257.23473234 209.44921565 -252 205 C-245.89111965 199.80780978 -239.78489359 194.61876419 -233.5625 189.5625 C-229.31607618 186.10725849 -225.14703706 182.57302166 -221 179 C-215.98403597 174.67832458 -210.90824892 170.44520959 -205.76953125 166.26953125 C-200.45558334 161.91494206 -195.23473234 157.44921565 -190 153 C-183.89111965 147.80780978 -177.78489359 142.61876419 -171.5625 137.5625 C-167.31607618 134.10725849 -163.14703706 130.57302166 -159 127 C-153.98403597 122.67832458 -148.90824892 118.44520959 -143.76953125 114.26953125 C-138.45558334 109.91494206 -133.23473234 105.44921565 -128 101 C-121.89111965 95.80780978 -115.78489359 90.61876419 -109.5625 85.5625 C-104.69870975 81.60491812 -99.94118769 77.53457554 -95.19165039 73.44165039 C-90.8019965 69.66665609 -86.33885229 65.99271539 -81.84375 62.34375 C-78.52313406 59.60697862 -75.25956291 56.80893615 -72 54 C-66.98408311 49.67827137 -61.90824701 45.44520804 -56.76953125 41.26953125 C-51.45558334 36.91494206 -46.23473234 32.44921565 -41 28 C-26.80938394 15.93880816 -26.80938394 15.93880816 -19.62890625 10.1484375 C-17.83913973 8.68577541 -16.07667313 7.18920783 -14.33984375 5.6640625 C-13.48519531 4.92929687 -12.63054687 4.19453125 -11.75 3.4375 C-11.00234375 2.77621094 -10.2546875 2.11492188 -9.484375 1.43359375 C-6.03088371 -0.55922277 -3.92562599 -0.60660887 0 0 Z " fill="#00DDB9" transform="translate(740,31)"/>
<path d="M0 0 C5.16578528 3.32906163 8.63541625 8.07426646 12.4453125 12.83984375 C15.21583697 16.29699544 18.10403317 19.64783489 21 23 C25.32001828 28.01255065 29.55099231 33.08539921 33.72265625 38.22265625 C36.28203972 41.34396267 38.88589916 44.42453424 41.5 47.5 C44.85447127 51.44650481 48.17221829 55.41642072 51.4375 59.4375 C55.39508188 64.30129025 59.46542446 69.05881231 63.55834961 73.80834961 C67.33334391 78.1980035 71.00728461 82.66114771 74.65625 87.15625 C77.39302138 90.47686594 80.19106385 93.74043709 83 97 C87.32172863 102.01591689 91.55479196 107.09175299 95.73046875 112.23046875 C100.08505794 117.54441666 104.55078435 122.76526766 109 128 C115.74527493 135.93616485 122.48177953 143.8750839 129 152 C129.82564453 152.98613281 129.82564453 152.98613281 130.66796875 153.9921875 C132.88764832 156.79010293 133.96794444 158.77923027 134.484375 162.3359375 C133.85611004 167.08845795 131.70823736 168.95595115 128.1875 171.875 C127.59582031 172.3918335 127.00414062 172.90866699 126.39453125 173.44116211 C124.61483563 174.98431288 122.81308509 176.49630468 121 178 C120.05769531 178.78761719 119.11539062 179.57523438 118.14453125 180.38671875 C116.37549553 181.84218831 114.59803749 183.28747859 112.8125 184.72265625 C109.66766152 187.26910185 106.58133483 189.87745274 103.5 192.5 C99.55374188 195.85475306 95.58357015 199.1722257 91.5625 202.4375 C86.69870975 206.39508188 81.94118769 210.46542446 77.19165039 214.55834961 C72.8019965 218.33334391 68.33885229 222.00728461 63.84375 225.65625 C60.52313514 228.39302049 57.25953218 231.1910295 54 234 C49.01059233 238.29972713 43.95778844 242.50485409 38.84375 246.65625 C35.52313406 249.39302138 32.25956291 252.19106385 29 255 C23.98685227 259.31934272 18.91462485 263.55097277 13.77734375 267.72265625 C10.65603733 270.28203972 7.57546576 272.88589916 4.5 275.5 C0.55349519 278.85447127 -3.41642072 282.17221829 -7.4375 285.4375 C-12.30129025 289.39508188 -17.05881231 293.46542446 -21.80834961 297.55834961 C-26.1980035 301.33334391 -30.66114771 305.00728461 -35.15625 308.65625 C-38.47686486 311.39302049 -41.74046782 314.1910295 -45 317 C-49.98940767 321.29972713 -55.04221156 325.50485409 -60.15625 329.65625 C-63.47686594 332.39302138 -66.74043709 335.19106385 -70 338 C-75.01591689 342.32172863 -80.09175299 346.55479196 -85.23046875 350.73046875 C-90.54441666 355.08505794 -95.76526766 359.55078435 -101 364 C-108.01514804 369.96246463 -115.05647291 375.88077939 -122.1953125 381.6953125 C-127.51612696 386.06756951 -132.75266336 390.54007144 -138 395 C-144.10888035 400.19219022 -150.21510641 405.38123581 -156.4375 410.4375 C-160.68392736 413.89274439 -164.85289261 417.42705568 -169 421 C-174.92055545 426.09926752 -180.89259033 431.1244238 -187 436 C-187.61617187 436.57621094 -188.23234375 437.15242188 -188.8671875 437.74609375 C-192.13871633 439.6694651 -194.27664303 439.56694744 -198 439 C-200.32698369 437.08920008 -201.9881359 435.46329368 -203.875 433.1875 C-204.65025024 432.29998047 -204.65025024 432.29998047 -205.44116211 431.39453125 C-206.98431288 429.61483563 -208.49630468 427.81308509 -210 426 C-210.78761719 425.05769531 -211.57523437 424.11539062 -212.38671875 423.14453125 C-213.8445159 421.37266649 -215.29237828 419.59258376 -216.73046875 417.8046875 C-219.2365667 414.70765079 -221.79683106 411.66202244 -224.375 408.625 C-224.83511475 408.08246582 -225.29522949 407.53993164 -225.76928711 406.98095703 C-227.17877222 405.31999721 -228.58921782 403.65985821 -230 402 C-235.96246463 394.98485196 -241.88077939 387.94352709 -247.6953125 380.8046875 C-252.06756951 375.48387304 -256.54007144 370.24733664 -261 365 C-266.19219022 358.89111965 -271.38123581 352.78489359 -276.4375 346.5625 C-280.39508188 341.69870975 -284.46542446 336.94118769 -288.55834961 332.19165039 C-292.33334391 327.8019965 -296.00728461 323.33885229 -299.65625 318.84375 C-302.39302405 315.52313082 -305.19116695 312.25965516 -308 309 C-312.37065898 303.92430718 -316.68340507 298.81061671 -320.890625 293.59765625 C-322.33711701 291.81632813 -323.80728816 290.054045 -325.296875 288.30859375 C-326.02390625 287.44363281 -326.7509375 286.57867188 -327.5 285.6875 C-328.1496875 284.92824219 -328.799375 284.16898438 -329.46875 283.38671875 C-331.34453448 280.46298324 -331.89220169 278.47200405 -332 275 C-330.2278544 270.91371238 -327.66113986 268.64037719 -324.1875 265.9375 C-319.70700392 262.3803294 -315.3271036 258.74218386 -311 255 C-306.01143017 250.69932272 -300.95775557 246.49511923 -295.84375 242.34375 C-292.52313406 239.60697862 -289.25956291 236.80893615 -286 234 C-280.98408311 229.67827137 -275.90824701 225.44520804 -270.76953125 221.26953125 C-265.45558334 216.91494206 -260.23473234 212.44921565 -255 208 C-248.89111965 202.80780978 -242.78489359 197.61876419 -236.5625 192.5625 C-232.31607618 189.10725849 -228.14703706 185.57302166 -224 182 C-218.98403597 177.67832458 -213.90824892 173.44520959 -208.76953125 169.26953125 C-203.45558334 164.91494206 -198.23473234 160.44921565 -193 156 C-185.98485196 150.03753537 -178.94352709 144.11922061 -171.8046875 138.3046875 C-166.48387304 133.93243049 -161.24733664 129.45992856 -156 125 C-149.89111965 119.80780978 -143.78489359 114.61876419 -137.5625 109.5625 C-132.69870975 105.60491812 -127.94118769 101.53457554 -123.19165039 97.44165039 C-118.8019965 93.66665609 -114.33885229 89.99271539 -109.84375 86.34375 C-106.52313406 83.60697862 -103.25956291 80.80893615 -100 78 C-94.98685227 73.68065728 -89.91462485 69.44902723 -84.77734375 65.27734375 C-81.65603733 62.71796028 -78.57546576 60.11410084 -75.5 57.5 C-71.55349519 54.14552873 -67.58357928 50.82778171 -63.5625 47.5625 C-58.69870975 43.60491812 -53.94118769 39.53457554 -49.19165039 35.44165039 C-44.79982154 31.66478568 -40.33530088 27.98815453 -35.8359375 24.33984375 C-33.15938773 22.13150585 -30.52963035 19.87941808 -27.90820312 17.60644531 C-22.6732191 13.07385509 -17.40294394 8.58160301 -12 4.25 C-10.4840625 3.02023437 -10.4840625 3.02023437 -8.9375 1.765625 C-5.58473207 -0.24960253 -3.843119 -0.51991986 0 0 Z " fill="#66EAD5" transform="translate(567,502)"/>
</svg>
